<?xml version="1.0" standalone="no"?>
<!DOCTYPE svg PUBLIC "-//W3C//DTD SVG 1.1//EN" "http://www.w3.org/Graphics/SVG/1.1/DTD/svg11.dtd" >
<svg xmlns="http://www.w3.org/2000/svg">
<metadata></metadata>
<defs>
<font id="avantgardemditcregular" horiz-adv-x="1024" >
<font-face units-per-em="2048" ascent="1638" descent="-410" />
<missing-glyph horiz-adv-x="512" />
<glyph horiz-adv-x="2048" />
<glyph horiz-adv-x="2048" />
<glyph unicode="&#xd;" horiz-adv-x="2048" />
<glyph unicode=" "  horiz-adv-x="512" />
<glyph unicode="&#x09;" horiz-adv-x="512" />
<glyph unicode="&#xa0;" horiz-adv-x="512" />
<glyph unicode="!" horiz-adv-x="604" d="M143 0v313h318v-313h-318zM143 451v915h318v-915h-318z" />
<glyph unicode="&#x22;" horiz-adv-x="835" d="M84 1366h289l-49 -549h-191zM463 1366h289l-50 -549h-190z" />
<glyph unicode="#" horiz-adv-x="1228" d="M16 375l35 233h209l29 176h-207l35 234h207l57 348h262l-55 -348h178l55 348h266l-55 -348h205l-35 -234h-207l-26 -176h209l-37 -233h-209l-60 -375h-266l60 375h-179l-59 -375h-264l61 375h-209zM524 608h178l27 176h-178z" />
<glyph unicode="$" horiz-adv-x="1126" d="M135 393v21h316q12 -131 108 -131q46 0 76 31q31 33 31 79q0 53 -39 90t-131 72l-62 23q-289 106 -289 360q0 141 77 238q76 96 218 135v186h250v-186q62 -16 104 -41q37 -22 78 -74q41 -54 59 -102q17 -47 17 -115v-18h-286q-10 116 -101 116q-46 0 -73 -28 q-27 -29 -27 -76q0 -54 40 -91q41 -38 144 -75l64 -23q127 -46 200 -142q72 -94 72 -214q0 -128 -78 -229t-213 -144v-194h-250v186q-82 17 -132 45q-51 29 -91 80q-35 43 -59 108q-23 61 -23 113z" />
<glyph unicode="%" horiz-adv-x="1638" d="M61 1059q0 69 25 133q23 60 70 105q47 46 106 70q63 26 133 26q69 0 133 -25q61 -24 107 -70t71 -105t25 -130q0 -73 -25 -132q-25 -60 -70 -106q-43 -44 -106 -69q-64 -25 -133 -25q-71 0 -135 25q-61 24 -105 68q-45 45 -70 104q-26 61 -26 131zM274 1063q0 -52 35 -90 q34 -37 88 -37q52 0 86 37q35 38 35 90q0 53 -36 89t-85 36q-53 0 -88 -36q-35 -37 -35 -89zM424 0l573 1366h217l-573 -1366h-217zM907 299q0 72 26 135t69 106t106 69t135 26q69 0 133 -25q63 -25 106 -69t69 -106q26 -61 26 -132q0 -70 -26 -131q-25 -58 -69 -104 t-106 -70q-64 -25 -133 -25q-71 0 -135 25q-62 24 -106 68q-45 45 -69 102q-26 61 -26 131zM1120 305q0 -54 35 -92q34 -37 88 -37q53 0 87 37t34 90q0 52 -35 90q-34 37 -86 37q-51 0 -87 -36t-36 -89z" />
<glyph unicode="&#x26;" horiz-adv-x="1351" d="M61 369q0 89 44 169q41 75 124 144l39 31q11 9 45 32q-65 65 -97 138t-32 157q0 74 30 139q29 63 80 112q48 47 120 75q69 27 149 27q76 0 143 -26q65 -25 114 -71q50 -47 76 -106q28 -64 28 -133q0 -97 -45 -169q-46 -73 -146 -145l162 -161l100 223h322l-105 -254 q-26 -58 -46 -95q-27 -48 -56 -87l186 -191l-209 -205l-161 166l-55 -46q-25 -21 -46 -33q-7 -4 -14.5 -8t-16.5 -8.5t-14 -7.5q-21 -11 -53 -24q-47 -19 -103 -29q-58 -10 -106 -10q-94 0 -179 31q-79 29 -144 84q-62 53 -98 125t-36 156zM397 401q0 -59 44 -97t114 -38 q52 0 91 17q38 17 75 57l-219 221q-58 -45 -82 -83q-23 -37 -23 -77zM481 1055q0 -37 18 -69q22 -38 60 -79q50 47 68 80t18 72q0 40 -21 64t-59 24q-35 0 -59 -26q-25 -27 -25 -66z" />
<glyph unicode="'" horiz-adv-x="456" d="M84 1366h289l-49 -549h-191z" />
<glyph unicode="(" horiz-adv-x="761" d="M61 512q0 224 101 423t280 333q53 39 121 75q67 36 144 64v-305q-72 -39 -132 -102q-58 -61 -102 -140q-41 -73 -66 -168q-24 -90 -24 -182t24 -181q26 -95 66 -167q44 -79 102 -140q59 -62 132 -100v-305q-77 28 -144 64q-68 36 -121 75q-88 66 -160 152 q-71 85 -120 181q-50 98 -75 205q-26 110 -26 218z" />
<glyph unicode=")" horiz-adv-x="761" d="M55 -78q71 37 131 100q61 64 103 141q41 75 66 169q24 90 24 182t-24 181q-26 95 -66 167q-43 77 -103 140t-131 100v305q77 -28 144 -64q64 -34 120 -75q90 -68 161 -152q71 -85 120 -181q50 -98 75 -205q25 -106 25 -218q0 -226 -100 -423t-281 -333q-56 -41 -120 -75 q-67 -36 -144 -64v305z" />
<glyph unicode="*" horiz-adv-x="1126" d="M156 993l67 203l236 -88l-6 258h221l-12 -258l237 88l72 -203l-244 -73l154 -203l-172 -131l-150 213l-147 -213l-172 131l159 203z" />
<glyph unicode="+" d="M68 575v240h315v315h258v-315h315v-240h-315v-315h-258v315h-315z" />
<glyph unicode="," horiz-adv-x="536" d="M109 0v313h319v-387q0 -100 -51 -162q-51 -61 -137 -61h-131v164h63q35 0 57 19q23 20 23 51v63h-143z" />
<glyph unicode="-" horiz-adv-x="518" d="M0 395v260h518v-260h-518z" />
<glyph unicode="." horiz-adv-x="536" d="M109 0v313h319v-313h-319z" />
<glyph unicode="/" horiz-adv-x="864" d="M-39 -342l535 1708h301l-535 -1708h-301z" />
<glyph unicode="0" horiz-adv-x="1126" d="M53 483v398q0 250 187 395q74 57 157 86q88 31 170 31q71 0 143 -23q71 -23 133 -61q57 -36 111 -94q49 -53 76 -115q20 -50 31 -105q12 -60 12 -114v-398q0 -108 -39 -201q-39 -94 -106 -162t-160 -108q-92 -39 -199 -39q-68 0 -142 22q-68 20 -133 59q-64 38 -113 90 q-51 55 -79 114q-21 42 -35 110q-14 65 -14 115zM401 483q0 -97 42 -150q42 -52 120 -52q162 0 162 202v400q0 202 -162 202q-78 0 -120 -53q-42 -52 -42 -149v-400z" />
<glyph unicode="1" horiz-adv-x="1126" d="M213 1071v295h571v-1366h-348v1071h-223z" />
<glyph unicode="2" horiz-adv-x="1126" d="M72 868q1 50 7 106q4 42 14 79q9 33 23 65q15 33 36 64q66 100 176 155q112 56 247 56q99 0 184 -30q83 -29 147 -84q63 -54 98 -127q34 -71 34 -159q0 -116 -51 -230q-50 -112 -160 -237q-21 -25 -47 -51l-49 -49q-30 -30 -62 -58l-85 -75h463v-293h-963v272l53 33 l102 65q37 24 74 54q44 36 62 53l61 58l67 69q30 32 60 74q127 158 127 274q0 59 -35 97q-33 36 -94 36q-77 0 -114 -51q-38 -52 -44 -166h-331z" />
<glyph unicode="3" horiz-adv-x="1120" d="M47 406h352q30 -125 156 -125q70 0 110 36q42 37 42 99q0 137 -185 137h-123v256h58q172 0 172 158q0 52 -26 86q-25 32 -71 32q-100 0 -106 -116h-344q1 93 36 173q34 79 95 134q63 57 146 86q88 31 190 31q91 0 170 -29q78 -28 135 -78t90 -118q33 -69 33 -148 q0 -190 -180 -289q125 -40 192 -125q66 -84 66 -205q0 -88 -40 -165q-41 -80 -109 -137q-66 -56 -161 -92q-90 -34 -196 -34q-78 0 -156 19q-74 18 -134 51t-104 80q-46 50 -69 106q-10 22 -15 41l-11 38q-6 25 -8 42q-4 28 -5 56z" />
<glyph unicode="4" horiz-adv-x="1126" d="M20 240v256l611 870h325v-852h150v-274h-150v-240h-335v240h-601zM369 514h274v428z" />
<glyph unicode="5" horiz-adv-x="1126" d="M35 367h350q63 -86 162 -86q38 0 70 14q35 15 59 39q26 26 40 57q15 33 15 70q0 78 -53 129q-52 51 -135 51q-61 0 -108 -30q-46 -30 -70 -89l-281 70l117 774h755v-295h-487l-31 -186q44 23 84 33q39 10 101 10q97 0 181 -35q82 -35 144 -96q61 -61 96 -146t35 -182 q0 -108 -40 -197q-41 -92 -110 -156q-73 -68 -167 -105q-97 -38 -209 -38q-97 0 -187 28q-86 27 -155 79q-66 50 -114 124q-45 69 -62 163z" />
<glyph unicode="6" horiz-adv-x="1126" d="M27 500q0 88 33 181q34 97 94 185l340 500h403l-301 -416q30 4 48 6q24 2 38 2q90 0 164 -35q73 -34 132 -98q57 -61 88 -146q32 -87 32 -183q0 -114 -40 -209q-42 -98 -112 -166q-74 -71 -169 -109q-97 -39 -212 -39q-111 0 -211 41q-97 40 -171 112q-72 70 -114 167 q-42 96 -42 207zM371 469q0 -80 55 -134q56 -54 135 -54q77 0 132 53t55 131q0 39 -15 73t-40 59t-60 40q-32 14 -76 14q-81 0 -133 -52q-53 -53 -53 -130z" />
<glyph unicode="7" horiz-adv-x="1126" d="M125 1071v295h891v-268l-481 -1098h-383l503 1071h-530z" />
<glyph unicode="8" horiz-adv-x="1126" d="M66 412q0 118 56 206q58 91 157 134q-74 59 -103 116q-31 62 -31 140q0 80 32 152q31 70 87 123t132 81q78 29 167 29q87 0 165 -29q76 -28 132 -80q55 -50 87 -121q32 -70 32 -151q0 -79 -32 -143q-30 -60 -101 -117q102 -44 159 -133q56 -88 56 -207q0 -92 -39 -172 t-107 -140q-65 -58 -157 -93q-89 -34 -193 -34q-100 0 -193 35q-92 35 -159 94q-67 60 -108 140q-39 77 -39 170zM414 438q0 -69 44 -113t109 -44q59 0 103 45q43 44 43 110q0 67 -43 111q-44 45 -107 45q-65 0 -107 -44t-42 -110zM436 979q0 -51 36 -86q37 -35 89 -35 t90 38q37 37 37 91q0 51 -36 87t-87 36q-53 0 -91 -36t-38 -89v-6z" />
<glyph unicode="9" horiz-adv-x="1126" d="M29 885q0 109 40 201q42 96 111 161q73 68 168 107q96 39 211 39q120 0 218 -40q99 -41 171 -111t112 -169q40 -98 40 -215q0 -94 -22 -166q-20 -67 -74 -151l-349 -541h-397l307 424q-30 -10 -48 -12q-24 -2 -44 -2q-98 0 -177 35q-78 34 -140 100q-59 62 -94 150 q-33 83 -33 190zM375 905q0 -78 55 -132t133 -54q77 0 132 53t55 131q0 37 -15 71t-40 58t-60 39q-32 14 -74 14q-35 0 -67 -13q-36 -15 -58 -37q-25 -25 -41 -54q-16 -30 -18 -66q0 -5 -1 -6t-1 -4z" />
<glyph unicode=":" horiz-adv-x="536" d="M109 0v313h319v-313h-319zM109 711v313h319v-313h-319z" />
<glyph unicode=";" horiz-adv-x="536" d="M109 0v313h319v-387q0 -100 -51 -162q-51 -61 -137 -61h-131v164h63q35 0 57 19q23 20 23 51v63h-143zM109 711v313h319v-313h-319z" />
<glyph unicode="&#x3c;" d="M68 575v218l888 450v-258l-614 -303l612 -303l2 -254z" />
<glyph unicode="=" d="M68 408v225h888v-225h-888zM68 760v225h888v-225h-888z" />
<glyph unicode="&#x3e;" d="M68 125v256l614 303l-612 303l-2 256l888 -450v-220z" />
<glyph unicode="?" horiz-adv-x="1015" d="M27 920v14q0 102 35 184q36 84 101 146q63 60 153 95q87 34 196 34q89 0 173 -31q80 -30 141 -83q61 -54 95 -124q33 -69 33 -154q0 -53 -14 -99q-16 -52 -39 -91q-15 -23 -27 -39q-16 -22 -28 -35q-22 -24 -40 -42q-19 -19 -61 -56q-27 -25 -67 -65q-27 -27 -42 -51 q-17 -27 -23 -44q-7 -21 -9 -45h-319q0 44 9 78q8 31 31 72q20 36 57 79q33 39 93 97q73 70 97 111q28 48 28 92q0 114 -106 114q-69 0 -97 -40q-29 -41 -30 -138h-338q-2 16 -2 21zM285 0v313h319v-313h-319z" />
<glyph unicode="@" horiz-adv-x="1501" d="M68 672q0 152 56 280q59 134 152 229t228 152q132 56 282 56q137 0 258 -46q122 -46 205 -125q85 -81 135 -192q50 -112 50 -240q0 -89 -28 -178q-26 -83 -74 -151q-47 -67 -107 -105q-61 -39 -127 -39q-59 0 -103 32q-42 30 -57 81q-39 -58 -109 -94q-68 -35 -145 -35 q-60 0 -115 25t-91 67q-38 44 -60 103q-23 61 -23 126q0 81 29 157q28 73 78 131q49 57 114 89q66 33 138 33q66 0 118 -27q54 -28 82 -73l15 80l178 -2l-76 -390q-9 -50 -10 -59q-2 -24 -2 -31q0 -65 47 -65q50 0 94 65q35 49 56 121q20 69 20 139q0 98 -35 180 q-34 79 -98 139q-62 57 -152 91q-88 33 -194 33q-117 0 -218 -43q-104 -44 -177 -119q-73 -74 -117 -178q-43 -101 -43 -221q0 -90 23 -166q25 -82 67 -146t103 -114t132 -74q101 -33 230 -33q191 0 372 64l41 -160q-92 -31 -195 -47q-111 -17 -222 -17q-317 0 -510 185 q-102 96 -159 230q-56 131 -56 282zM598 627q0 -66 38 -107t97 -41q35 0 67 18q34 19 56 47q25 31 39 69t14 85v9q0 59 -38 97t-93 38q-36 0 -69 -18q-36 -19 -58 -46q-25 -29 -39 -68q-14 -38 -14 -83z" />
<glyph unicode="A" horiz-adv-x="1351" d="M-6 0l547 1366h276l543 -1366h-379l-66 199h-475l-71 -199h-375zM537 475h284l-141 467z" />
<glyph unicode="B" horiz-adv-x="1181" d="M117 0v1366h420q92 0 147 -4q63 -5 106 -12q37 -6 76 -24q33 -15 60 -36q59 -46 94 -123q35 -78 35 -159q0 -91 -40 -161q-41 -72 -118 -116q225 -77 225 -317q0 -89 -32 -163q-33 -77 -93 -132q-40 -38 -76 -60q-33 -20 -90 -35q-56 -15 -118 -19q-75 -5 -164 -5h-432z M451 307h163q174 0 174 129q0 64 -40 91q-42 28 -134 28h-163v-248zM451 846h122q80 0 113 26q35 27 35 82q0 56 -34 80q-36 25 -114 25h-122v-213z" />
<glyph unicode="C" horiz-adv-x="1507" d="M59 686q0 147 56 277q56 131 151 224q96 94 227 150q132 56 281 56q194 0 349 -85q156 -86 257 -245q11 -17 37 -61q16 -26 24 -49q9 -25 15 -49q6 -27 12 -58h-364q-40 109 -130 175q-88 64 -202 64q-78 0 -144 -30q-64 -29 -116 -84q-49 -52 -77 -126q-27 -72 -27 -159 q0 -88 28 -160q28 -74 78 -129q50 -56 116 -86t144 -30q219 0 330 229h364q-28 -119 -93 -219t-155 -169q-93 -71 -204 -110q-112 -39 -238 -39q-150 0 -282 56q-134 57 -228 151t-152 227q-57 130 -57 279z" />
<glyph unicode="D" horiz-adv-x="1355" d="M117 0v1366h458q72 0 139 -5q64 -5 110 -16q56 -14 95 -31q46 -21 87 -46q97 -61 165 -158q125 -175 125 -422q0 -156 -46 -282q-47 -129 -130 -218q-84 -90 -202 -139q-117 -49 -265 -49h-536zM465 307h149q163 0 249 95q85 94 85 276q0 183 -86 283q-85 98 -246 98 h-151v-752z" />
<glyph unicode="E" horiz-adv-x="960" d="M117 0v1366h757v-307h-423v-211h411v-307h-411v-234h423v-307h-757z" />
<glyph unicode="F" horiz-adv-x="909" d="M117 0v1366h745v-307h-411v-232h397v-307h-397v-520h-334z" />
<glyph unicode="G" horiz-adv-x="1570" d="M59 688q0 150 57 278q59 133 154 223q100 96 232 149q136 55 289 55q118 0 226 -37q109 -38 201 -102q90 -64 157 -153t95 -194h-391q-46 85 -124 132q-76 46 -175 46q-80 0 -148 -28q-67 -28 -118 -80q-49 -51 -78 -122q-28 -69 -28 -153q0 -97 28 -174t81 -133t125 -86 t163 -30q117 0 196 58q81 60 105 161h-406v278h809q1 -24 3 -39q1 -10 1 -30q0 -160 -55 -292q-57 -137 -153 -233t-233 -153q-135 -56 -290 -56q-150 0 -283 56q-135 57 -230 152t-153 228q-57 131 -57 279z" />
<glyph unicode="H" horiz-adv-x="1374" d="M117 0v1366h348v-512h446v512h349v-1366h-349v547h-446v-547h-348z" />
<glyph unicode="I" horiz-adv-x="579" d="M117 0v1366h348v-1366h-348z" />
<glyph unicode="J" horiz-adv-x="1032" d="M0 438h371q5 -84 28 -121q23 -36 78 -36q58 0 81 38q24 39 24 134v913h348v-827q0 -87 -4 -140q-4 -55 -14 -103q-10 -47 -25 -79q-16 -34 -41 -65q-68 -86 -168 -132q-103 -47 -219 -47q-73 0 -142 20q-65 19 -123 54q-56 34 -99 83q-40 46 -62 108q-12 32 -17 48 q-3 11 -10 43q-3 14 -5 47q-1 17 -1 62z" />
<glyph unicode="K" horiz-adv-x="1234" d="M117 0v1366h348v-616l389 616h367l-455 -682l483 -684h-409l-375 590v-590h-348z" />
<glyph unicode="L" horiz-adv-x="894" d="M117 0v1366h348v-1059h403v-307h-751z" />
<glyph unicode="M" horiz-adv-x="1673" d="M117 0v1366h448l271 -899l270 899h450v-1366h-321l12 1026l-295 -1026h-231l-295 1026l10 -1026h-319z" />
<glyph unicode="N" horiz-adv-x="1384" d="M117 0v1366h299l532 -860l-14 860h334v-1366h-303l-529 829l15 -829h-334z" />
<glyph unicode="O" horiz-adv-x="1558" d="M59 680q0 150 56 282q55 130 151 226q95 95 228 150t282 55q153 0 286 -56q131 -55 229 -150q97 -94 154 -225q56 -128 56 -280t-56 -279q-58 -131 -154 -224q-98 -95 -229 -150q-133 -56 -286 -56q-149 0 -282 55q-132 55 -228 149q-95 93 -151 224q-56 130 -56 279z M408 686q0 -87 28 -161q28 -73 79 -129q50 -55 120 -85q69 -30 149 -30q78 0 146 30q65 29 117 84q47 50 77 127q29 75 29 158q0 85 -29 160q-28 74 -78 129q-50 56 -118 86t-148 30q-79 0 -148 -30q-66 -29 -118 -84q-48 -51 -78 -126q-28 -71 -28 -159z" />
<glyph unicode="P" horiz-adv-x="1183" d="M117 0v1366h446q76 0 146 -5q54 -4 112 -18q50 -12 88 -31q40 -20 74 -48q78 -63 119 -158q41 -96 41 -205q0 -104 -39 -199q-38 -93 -105 -155q-67 -64 -161 -92q-92 -27 -238 -27h-149v-428h-334zM451 737h141q217 0 217 160q0 87 -54 124q-55 38 -177 38h-127v-322z " />
<glyph unicode="Q" horiz-adv-x="1566" d="M59 676q0 148 56 280q57 134 152 229q96 96 228 152t281 56q153 0 288 -56t233 -151t156 -228q56 -128 56 -282q0 -105 -27 -195t-89 -182q52 -49 149 -49q8 0 12 1t17 1v-277l-48 -3q-10 -1 -38 -1q-104 0 -189 29q-84 29 -131 80q-176 -107 -370 -107q-154 0 -290 55 q-137 55 -234 148q-98 93 -155 223q-57 129 -57 277zM410 741q62 27 102 36q41 9 92 9q159 0 322 -114l53 -40q30 -24 44 -37q19 -17 42 -44l49 -57q26 64 37 108q10 39 10 94q0 85 -28 156q-28 70 -80 124q-51 52 -122 81q-69 28 -155 28q-141 0 -241 -92 q-98 -90 -125 -252zM444 510q43 -103 134 -167q89 -62 194 -62q45 0 72 10q28 10 74 41q-47 60 -95 102q-44 38 -102 64q-71 34 -154 34q-32 0 -60 -5q-22 -4 -63 -17z" />
<glyph unicode="R" horiz-adv-x="1200" d="M117 0v1366h432q79 0 149 -5q67 -5 113 -16q47 -12 86 -30q36 -17 72 -47q79 -67 123 -164q45 -99 45 -211q0 -169 -93 -286q-91 -115 -247 -142l370 -465h-399l-317 442v-442h-334zM451 680h122q110 0 169 50t59 142q0 93 -58 140t-165 47h-127v-379z" />
<glyph unicode="S" horiz-adv-x="1056" d="M29 406v45h350q0 -86 38 -136q37 -49 103 -49q56 0 96 38q39 38 39 93q0 49 -33 82q-37 37 -112 66q-67 29 -101 42q-35 13 -57 23q-58 26 -88 44q-42 25 -76 53q-62 50 -100 126q-37 74 -37 156q0 87 37 160q39 76 101 128q67 56 153 85q91 31 188 31q111 0 210 -42 t159 -114q26 -33 41 -57q16 -26 27 -58q11 -30 15 -67q5 -41 9 -86h-346q-11 71 -40 100q-31 31 -85 31q-48 0 -85 -31q-36 -30 -36 -74q0 -83 117 -135l168 -76q174 -79 245 -169q72 -92 72 -224q0 -199 -125 -308q-127 -110 -352 -110q-114 0 -206 30t-155 86 q-66 59 -100 136q-34 78 -34 181z" />
<glyph unicode="T" horiz-adv-x="915" d="M14 1059v307h889v-307h-270v-1059h-348v1059h-271z" />
<glyph unicode="U" horiz-adv-x="1253" d="M102 539v827h349v-827q0 -135 42 -197q42 -61 136 -61q96 0 135 57t39 201v827h348v-827q0 -149 -31 -247q-30 -94 -104 -171q-146 -148 -387 -148q-121 0 -219 37t-170 109q-40 40 -66 79q-28 41 -42 89q-14 47 -22 109q-8 64 -8 143z" />
<glyph unicode="V" horiz-adv-x="1232" d="M-20 1366h360l276 -958l277 958h360l-458 -1366h-359z" />
<glyph unicode="W" horiz-adv-x="1777" d="M14 1366h355l182 -889l203 889h268l201 -893l186 893h354l-362 -1366h-307l-207 883l-207 -883h-313z" />
<glyph unicode="X" horiz-adv-x="1318" d="M-20 0l477 727l-422 639h395l234 -391l227 391h393l-418 -645l473 -721h-395l-295 483l-280 -483h-389z" />
<glyph unicode="Y" horiz-adv-x="1120" d="M-20 1366h378l203 -549l205 549h375l-406 -868v-498h-348v498z" />
<glyph unicode="Z" horiz-adv-x="935" d="M35 0v229l471 830h-471v307h860v-283l-436 -776h436v-307h-860z" />
<glyph unicode="[" horiz-adv-x="761" d="M123 96v715q0 173 48 281q47 106 157 190q42 31 58 40q27 16 55 27q27 11 68 19q32 6 95 18q20 6 35 7v-301q-111 -4 -157 -61q-46 -56 -46 -185v-785q0 -130 46 -186q46 -57 157 -61v-301l-31 6q-69 14 -89 19q-37 9 -69 21q-42 16 -61 26q-23 12 -61 38 q-84 62 -135 148q-38 67 -54 140t-16 185z" />
<glyph unicode="\" d="M55 1536h254l627 -1706h-252z" />
<glyph unicode="]" horiz-adv-x="761" d="M123 -186q111 4 157 61q46 56 46 186v785q0 129 -46 185q-46 57 -157 61v301l31 -4q44 -5 89 -16q37 -9 69 -21t61 -29q23 -13 61 -41q86 -63 135 -147q37 -66 54 -140q16 -71 16 -184v-715q0 -172 -48 -281q-47 -108 -157 -192q-42 -31 -58 -40q-21 -12 -55 -26 q-32 -13 -68 -20q-32 -6 -95 -18q-11 0 -35 -6v301z" />
<glyph unicode="^" d="M12 688l330 684h340l330 -684h-271l-229 477l-229 -477h-271z" />
<glyph unicode="_" d="M0 -96h1024v-234h-1024v234z" />
<glyph unicode="`" d="M182 1380l123 187l400 -303l-105 -152z" />
<glyph unicode="a" horiz-adv-x="1284" d="M55 512q0 120 39 222q38 100 109 174q69 72 166 113q95 40 213 40q114 0 192 -35q75 -34 119 -111v109h289v-1024h-289v111q-74 -146 -318 -146q-118 0 -211 40q-96 41 -164 112q-70 73 -107 172q-38 102 -38 223zM362 512q0 -54 20 -102q20 -47 54 -83q35 -36 82 -56 q45 -19 100 -19q58 0 103 19t81 55q32 32 53 83q19 47 19 105q0 57 -19 102q-21 50 -53 82q-37 37 -82 55q-47 19 -104 19q-55 0 -100 -19q-46 -19 -81 -56q-32 -34 -53 -83q-20 -48 -20 -102z" />
<glyph unicode="b" horiz-adv-x="1265" d="M102 0v1366h308v-424q111 117 295 117q112 0 202 -40q92 -41 160 -113q67 -71 105 -172q38 -100 38 -216q0 -119 -38 -222q-37 -100 -107 -175q-70 -74 -165 -115q-96 -41 -208 -41q-49 0 -84 7q-36 7 -71 24q-37 18 -70 45q-32 27 -74 70v-111h-291zM397 512 q0 -52 19 -103q19 -50 52 -83q37 -37 80 -55q45 -19 99 -19q57 0 102 19q44 18 80 56q36 37 55 83q19 45 19 102t-19 102q-20 48 -54 82q-37 37 -79 56q-44 20 -100 20t-101 -19q-44 -18 -80 -56q-32 -34 -53 -83q-20 -48 -20 -102z" />
<glyph unicode="c" horiz-adv-x="1175" d="M55 514q0 115 42 214q42 98 115 173q73 74 171 116q99 42 213 42q97 0 190 -31q88 -29 162 -88q72 -57 121 -136t70 -175h-310q-29 68 -88 105q-61 38 -135 38q-54 0 -98 -19q-45 -20 -77 -56q-32 -37 -50 -84q-19 -51 -19 -105q0 -112 69 -184t175 -72q72 0 125 33 q55 35 100 104h310q-22 -91 -73 -172q-47 -74 -121 -134q-71 -57 -159 -87q-91 -31 -184 -31q-116 0 -215 43q-101 44 -174 117t-117 174q-43 99 -43 215z" />
<glyph unicode="d" horiz-adv-x="1275" d="M55 514q0 117 39 217t107 173q70 75 160 114q94 41 202 41q96 0 168 -30q73 -30 135 -91v428h308v-1366h-291v109q-60 -74 -134 -110q-71 -34 -180 -34q-111 0 -207 41q-90 38 -162 114q-70 73 -107 173q-38 102 -38 221zM362 514q0 -56 20 -105q21 -51 53 -83 q37 -37 82 -55q47 -19 104 -19q114 0 188 74t74 190q0 53 -20 101q-19 47 -54 81q-35 36 -82 55q-45 19 -102 19q-59 0 -106 -19q-49 -20 -83 -54q-35 -35 -54 -82q-20 -49 -20 -103z" />
<glyph unicode="e" horiz-adv-x="1183" d="M55 510q0 114 42 215t114 174q72 74 169 117q96 43 208 43q116 0 214 -43q102 -45 172 -118q73 -76 113 -177q41 -103 41 -221q0 -22 -2 -42q-2 -15 -6 -42h-768q10 -86 72 -138q62 -53 154 -53q56 0 98 17q40 16 90 63q1 4 6 7q3 2 8 7h312q-71 -165 -203 -260 q-130 -94 -295 -94q-112 0 -211 42q-98 42 -171 116q-73 75 -115 173q-42 99 -42 214zM360 621h461q-17 80 -79 129t-152 49q-92 0 -151 -46q-61 -47 -79 -132z" />
<glyph unicode="f" horiz-adv-x="602" d="M16 793v231h113v53q0 76 25 140q23 59 71 98q53 41 121 60q66 18 174 18h47v-232h-37q-94 0 -94 -96v-41h131v-231h-131v-793h-307v793h-113z" />
<glyph unicode="g" horiz-adv-x="1269" d="M55 506q0 119 40 220q40 100 110 175q69 73 165 116q95 42 208 42q194 0 299 -129v94h290v-901q0 -86 -3 -143q-3 -61 -13 -99q-11 -42 -28 -72q-20 -35 -46 -65q-85 -98 -211 -150q-124 -51 -278 -51q-104 0 -194 26q-86 25 -156 73q-68 47 -110 113q-41 65 -52 149h354 q44 -101 180 -101q119 0 184 73q64 71 64 204v33q-18 -33 -47 -59q-29 -27 -72 -47q-38 -18 -89 -31q-44 -11 -97 -11q-105 0 -196 42q-90 41 -157 116q-68 76 -106 172q-39 99 -39 211zM362 516q0 -113 70 -189q69 -75 178 -75q112 0 181 72t69 184q0 118 -68 190 q-69 74 -180 74q-54 0 -98 -19q-42 -18 -79 -55q-32 -32 -53 -82q-20 -48 -20 -100z" />
<glyph unicode="h" horiz-adv-x="1146" d="M102 0v1366h308v-434q76 127 268 127q84 0 157 -29q71 -28 119 -82q30 -31 47 -63q18 -33 30 -75q11 -40 16 -99q4 -51 4 -140v-571h-308v559q0 213 -163 213q-170 0 -170 -205v-567h-308z" />
<glyph unicode="i" horiz-adv-x="512" d="M102 0v1024h308v-1024h-308zM102 1133v233h308v-233h-308z" />
<glyph unicode="j" horiz-adv-x="512" d="M-47 -143h41q62 0 85 33t23 122v1012h308v-1001q0 -116 -19 -190q-18 -72 -61 -116q-48 -50 -117 -71q-68 -21 -184 -21h-76v232zM102 1133v233h308v-233h-308z" />
<glyph unicode="k" horiz-adv-x="1046" d="M102 0v1366h308v-713l288 371h363l-387 -449l377 -575h-349l-292 494v-494h-308z" />
<glyph unicode="l" horiz-adv-x="512" d="M102 0v1366h308v-1366h-308z" />
<glyph unicode="m" horiz-adv-x="1769" d="M102 0v1024h291v-109q91 144 281 144q197 0 297 -182q112 182 325 182q157 0 265 -103q35 -34 57 -66q23 -32 35 -76q11 -41 16 -104q4 -53 4 -151v-559h-307v545q0 122 -35 175q-34 52 -117 52q-167 0 -167 -213v-559h-308v559q0 213 -157 213q-172 0 -172 -213v-559 h-308z" />
<glyph unicode="n" horiz-adv-x="1146" d="M102 0v1024h291v-109q51 74 118 110q64 34 163 34q78 0 153 -28q70 -26 121 -77q32 -31 50 -58q18 -28 31 -66q13 -39 17 -81q5 -52 5 -108v-641h-308v559q0 112 -37 162q-38 51 -122 51q-174 0 -174 -201v-571h-308z" />
<glyph unicode="o" horiz-adv-x="1218" d="M55 506q0 117 41 220q40 100 115 175t175 116q102 42 222 42q117 0 220 -41q101 -40 176 -115q73 -73 115 -174q42 -100 42 -217q0 -116 -42 -217t-115 -174q-74 -75 -175 -115q-102 -41 -219 -41q-119 0 -222 41q-100 40 -175 113q-74 73 -116 171q-42 99 -42 216z M362 514q0 -52 19 -103q18 -49 52 -84q36 -37 79 -56q44 -19 98 -19q53 0 97 19q43 18 77 56t52 83q18 46 18 102q0 57 -19 102q-20 47 -53 82q-34 36 -76 56q-41 20 -96 20t-98 -20q-44 -21 -78 -56q-31 -33 -52 -82q-20 -48 -20 -100z" />
<glyph unicode="p" horiz-adv-x="1275" d="M102 -342v1366h289v-113q61 79 136 113q78 35 188 35t203 -41q91 -40 158 -115q67 -74 104 -176q37 -101 37 -223q0 -114 -38 -214q-37 -97 -106 -171q-68 -73 -159 -113q-93 -41 -197 -41q-96 0 -172 31q-73 30 -135 98v-436h-308zM395 516q0 -54 20 -103q19 -48 54 -84 q34 -35 82 -57q44 -20 102 -20q56 0 101 19q47 20 82 56q34 36 54 83q19 45 19 102t-19 102q-20 47 -54 83q-35 36 -82 56q-45 19 -103 19q-55 0 -99 -20q-46 -21 -81 -56q-34 -34 -55 -81t-21 -99z" />
<glyph unicode="q" horiz-adv-x="1275" d="M55 494q0 121 38 227q36 101 108 179q69 75 164 117q94 42 208 42q201 0 310 -148v113h291v-1366h-308v446q-65 -73 -138 -106q-72 -33 -177 -33q-108 0 -198 40q-89 39 -156 111q-67 71 -104 167q-38 97 -38 211zM362 510q0 -56 21 -102q22 -49 55 -82q36 -36 82 -55 q45 -19 103 -19q55 0 99 20q46 21 81 56q33 33 55 82q21 46 21 100t-20 103t-55 84q-36 37 -83 56q-45 19 -103 19q-56 0 -101 -19q-46 -19 -81 -56q-34 -36 -54 -84q-20 -49 -20 -103z" />
<glyph unicode="r" horiz-adv-x="661" d="M102 0v1024h291v-109q42 75 101 110q56 34 147 34h8v-307q-134 -5 -187 -46q-54 -42 -54 -141v-565h-306z" />
<glyph unicode="s" horiz-adv-x="911" d="M31 305h305q12 -94 117 -94q43 0 74 22q32 23 32 56q0 69 -119 102l-180 47q-44 11 -87 40q-40 26 -69 65q-29 38 -45 83t-16 95q0 68 32 132t88 108t132 71q77 27 162 27q161 0 262 -86q100 -85 115 -236h-299q-7 76 -89 76q-42 0 -69 -18t-27 -47q0 -36 37 -63 q39 -28 121 -50q86 -24 130 -39q51 -17 83 -33t54 -38q20 -20 44 -52q47 -70 47 -160q0 -75 -32 -138q-31 -61 -91 -110q-56 -46 -135 -73q-78 -27 -168 -27q-85 0 -157 24q-74 25 -125 67q-53 44 -86 107q-34 64 -41 142z" />
<glyph unicode="t" horiz-adv-x="600" d="M-20 793v231h149v225l305 117v-342h148v-231h-148v-478q0 -59 64 -59h86v-254h-176q-146 0 -209 72q-70 79 -70 180v539h-149z" />
<glyph unicode="u" horiz-adv-x="1150" d="M96 412v612h307v-571q0 -108 39 -154q39 -47 125 -47q84 0 129 52t45 149v571h308v-1024h-291v109q-72 -144 -271 -144q-187 0 -299 129q-20 23 -44 62q-14 23 -28 67q-11 35 -16 82q-4 40 -4 107z" />
<glyph unicode="v" horiz-adv-x="989" d="M-20 1024h317l197 -639l198 639h318l-369 -1024h-293z" />
<glyph unicode="w" horiz-adv-x="1542" d="M0 1024h315l156 -637l170 637h260l170 -637l156 637h315l-313 -1024h-285l-174 662l-172 -662h-285z" />
<glyph unicode="x" horiz-adv-x="1116" d="M-20 0l389 549l-344 475h366l166 -268l164 268h362l-344 -475l398 -549h-375l-205 317l-211 -317h-366z" />
<glyph unicode="y" horiz-adv-x="1015" d="M-20 1024h325l207 -594l199 594h325l-514 -1366h-323l161 393z" />
<glyph unicode="z" horiz-adv-x="829" d="M35 0v211l430 582h-430v231h762v-233l-402 -560h402v-231h-762z" />
<glyph unicode="{" d="M248 391v219q59 12 86 49q26 36 26 109v319q0 160 71 228q70 67 239 67h20q6 -2 21 -2q7 0 45 -2h67v-229h-41q-55 0 -83 -4q-32 -5 -50 -18q-18 -14 -24 -35q-7 -26 -7 -60v-26v-256q0 -49 -5 -91q-4 -37 -19 -65q-17 -32 -38 -53q-29 -29 -60 -49q29 -19 58 -48 q22 -22 38 -54q14 -27 20 -67q6 -38 6 -90v-256v-26q0 -33 7 -61q6 -23 24 -35q19 -13 50 -17q28 -4 83 -4h41v-229h-67l-66 -4h-20q-170 0 -239 68q-71 69 -71 229v317q0 87 -25 125q-25 39 -87 51z" />
<glyph unicode="|" d="M383 -512v2048h258v-2048h-258z" />
<glyph unicode="}" d="M248 -166h41q55 0 83 4q31 4 49 18q17 13 23 35q7 26 7 60v26v256q0 48 5 90q5 39 19 66q17 32 38 53q32 32 60 50q-32 21 -58 47q-22 22 -38 54q-14 27 -20 67q-6 38 -6 90v256v26q0 33 -7 61q-6 23 -24 35q-19 13 -51 17q-29 4 -84 4h-37v229h65l66 4h20q170 0 239 -68 q71 -69 71 -229v-317q0 -87 25 -125q26 -39 87 -51v-219q-59 -12 -86 -49q-26 -36 -26 -109v-319q0 -160 -71 -228q-70 -67 -241 -67h-18l-66 4h-65v229z" />
<glyph unicode="~" horiz-adv-x="1366" d="M184 1243q8 14 10 20q3 10 7 15q32 74 60 117q29 44 65 76q35 30 74 42q44 13 94 13q35 0 86 -14q48 -13 127 -42l74 -26q34 -13 45 -16q18 -4 30 -6q8 -1 29 -1q51 0 82 23q29 21 67 86l148 -86q-29 -60 -49 -93q-25 -41 -44 -66q-21 -26 -45 -46q-22 -17 -53 -33 q-67 -35 -135 -35q-30 0 -74 12q-46 13 -133 46q-30 11 -72 25t-46 15q-20 5 -28 6t-26 1q-50 0 -81 -26q-29 -25 -68 -101z" />
<glyph unicode="&#xa1;" horiz-adv-x="604" d="M143 -342v915h318v-915h-318zM143 711v313h318v-313h-318z" />
<glyph unicode="&#xa2;" horiz-adv-x="1126" d="M109 688q0 81 23 149q24 72 67 129q42 57 103 101t134 68v194h242v-186q65 -17 127 -56q60 -37 104 -86q47 -52 74 -107q29 -60 35 -120h-318q-41 74 -131 74q-65 0 -111 -46t-46 -112t46 -109q47 -44 111 -44q69 0 125 63h324q-23 -130 -114 -227q-88 -94 -214 -121 v-195h-254v195q-152 51 -240 167q-87 115 -87 269z" />
<glyph unicode="&#xa3;" horiz-adv-x="1126" d="M16 524v246h90q-29 58 -40 94t-11 80q0 92 39 174t106 143q66 60 155 96t192 36q131 0 239 -57q111 -59 172 -160q14 -22 28 -51q12 -23 19 -50q7 -24 13 -59q5 -27 10 -78h-321q-15 147 -142 147q-69 0 -115 -48q-47 -49 -47 -119q0 -40 14 -74t48 -74h289v-246h-142 q36 -42 47 -67q13 -29 13 -60q0 -33 -16 -62t-56 -63h78q149 0 149 127q0 12 -2 30q-1 9 -10 36h297q11 -35 15 -58q6 -32 6 -59q0 -71 -31 -138q-29 -63 -85 -111q-51 -44 -128 -72q-73 -27 -160 -27h-655v272h90q89 0 129 23q39 23 39 76q0 49 -33 94l-45 59h-238z" />
<glyph unicode="&#xa4;" horiz-adv-x="1366" d="M43 1266l141 141l213 -213q76 49 141 69q69 21 146 21q81 0 144 -20q66 -21 139 -68l209 209l139 -141l-207 -207q53 -85 73 -146q21 -63 21 -141q0 -75 -21 -141q-19 -59 -69 -137l209 -211l-139 -142l-209 209q-137 -92 -291 -92q-73 0 -142 22q-70 22 -145 70 l-209 -209l-141 142l211 208q-92 131 -92 283q0 78 22 143q21 63 70 138zM401 770q0 -59 23 -111t60 -89t89 -60t111 -23q57 0 109 23q51 22 90 60q39 37 60 89q22 53 22 111q0 57 -22 112q-21 52 -60 90t-90 60q-52 23 -109 23q-59 0 -111 -23q-51 -22 -90 -60t-60 -90 q-22 -55 -22 -112z" />
<glyph unicode="&#xa5;" horiz-adv-x="1126" d="M23 1366h346l196 -549l197 549h342l-184 -432h120v-215h-213l-69 -162h227v-215h-254v-342h-334v342h-256v215h230l-78 182h-207v215h113z" />
<glyph unicode="&#xa7;" horiz-adv-x="1126" d="M18 514q0 92 43 168q42 73 134 141q-30 47 -44 97q-14 51 -14 108q0 82 32 149q31 66 90 114t139 75q81 27 182 27q92 0 174 -28q78 -26 138 -79q58 -50 93 -121q35 -69 39 -151h-301q-30 106 -162 106q-61 0 -95 -24t-34 -72q0 -34 24 -58q25 -25 85 -53l336 -151 q124 -56 177 -127q54 -72 54 -180q0 -79 -32 -146t-115 -135l-13 -10q52 -69 74 -129t22 -133q0 -92 -33 -162q-35 -75 -96 -127q-63 -54 -146 -83q-85 -30 -187 -30q-106 0 -201 31q-91 30 -160 88q-66 56 -107 138q-40 81 -48 180h303q12 -77 65 -118q52 -40 141 -40 q75 0 121 34q47 35 47 87q0 44 -33 73q-37 32 -128 74l-316 146q-83 39 -123 68q-42 30 -71 75q-54 80 -54 178zM297 578q0 -42 22 -67q23 -26 76 -50l373 -172q68 45 68 112q0 37 -28 65t-97 58l-340 154q-74 -35 -74 -100z" />
<glyph unicode="&#xa8;" d="M160 1161v279h295v-279h-295zM569 1161v279h295v-279h-295z" />
<glyph unicode="&#xa9;" horiz-adv-x="1529" d="M55 682q0 146 56 276q56 131 151 227q94 96 225 152q130 56 277 56q146 0 276 -56q132 -57 227 -152t152 -227q56 -130 56 -276t-56 -276q-57 -132 -152 -226q-96 -95 -227 -151q-130 -56 -276 -56q-147 0 -277 56t-225 151q-94 94 -151 226q-56 130 -56 276zM180 682 q0 -121 46 -228q48 -111 125 -188q79 -80 186 -126q105 -46 227 -46t227 46q107 46 186 126q77 77 125 188q46 107 46 228q0 123 -46 230q-48 111 -125 188q-79 80 -186 126q-105 46 -227 46t-227 -46q-107 -46 -186 -126q-77 -77 -125 -188q-46 -107 -46 -230zM330 684 q0 89 34 166q35 79 94 135q60 57 140 90t172 33q78 0 151 -26t131 -69q57 -42 97 -104q39 -60 51 -129h-225q-27 66 -81 105t-124 39q-99 0 -162 -68t-63 -172q0 -54 17 -96q18 -45 48 -78q29 -32 72 -51t88 -19q137 0 205 140h225q-18 -72 -58 -131q-41 -61 -96 -103 q-53 -41 -126 -66q-69 -24 -146 -24q-94 0 -175 33q-82 33 -141 91q-60 58 -94 136q-34 77 -34 168z" />
<glyph unicode="&#xaa;" horiz-adv-x="751" d="M47 1094q0 64 21 116q22 56 58 93q38 39 90 60t114 21q116 0 162 -65v47h161v-547h-161v47q-28 -35 -66 -50q-39 -15 -98 -15q-125 0 -203 81t-78 212zM61 608v68h578v-68h-578zM219 1092q0 -56 38 -94q37 -37 93 -37q58 0 94 36q37 37 37 97q0 57 -37 94t-96 37 q-54 0 -92 -38q-37 -37 -37 -95z" />
<glyph unicode="&#xab;" horiz-adv-x="753" d="M68 412v235l237 242v-273l-94 -84l94 -86v-270zM403 412v235l238 242v-273l-96 -84l96 -86v-270z" />
<glyph unicode="&#xac;" d="M68 313v234h888v-547h-260v313h-628z" />
<glyph unicode="&#xad;" horiz-adv-x="1124" d="M94 420v127h936v-127h-936z" />
<glyph unicode="&#xae;" horiz-adv-x="1050" d="M92 1141q0 91 34 169q34 80 93 138t138 93q78 34 169 34t169 -34q81 -35 139 -93t93 -138q34 -78 34 -169t-34 -169q-35 -80 -93 -138q-60 -60 -139 -94q-76 -33 -169 -33t-169 33q-78 34 -138 94q-59 58 -93 138q-34 78 -34 169zM172 1141q0 -72 28 -139q27 -64 75 -112 q49 -49 113 -76q67 -28 138 -28q73 0 138 28q61 26 111 76t76 112q28 67 28 139t-28 137q-27 63 -76 112q-48 48 -111 75q-65 28 -138 28q-71 0 -138 -28q-65 -27 -113 -75q-47 -47 -75 -112t-28 -137zM352 915v451h154q207 0 207 -158q0 -51 -31 -93q-29 -39 -78 -50 l127 -150h-149l-103 138v-138h-127zM475 1143h41q76 0 76 57t-76 57h-41v-114z" />
<glyph unicode="&#xaf;" d="M184 1214v179h656v-179h-656z" />
<glyph unicode="&#xb0;" d="M197 1044q0 63 24 120q24 56 68 99q44 42 100 66q59 25 123 25t123 -25q56 -24 100 -66q44 -43 68 -99q24 -57 24 -120q0 -64 -24 -121q-24 -56 -68 -99q-44 -42 -100 -66q-59 -25 -123 -25t-123 25q-56 24 -100 66q-44 43 -68 99q-24 57 -24 121zM352 1044q0 -30 13 -61 q12 -29 33 -50q22 -22 52 -34t62 -12t62 12t52 34q21 21 33 50q13 31 13 61q0 66 -47 111q-46 45 -113 45q-66 0 -113 -45t-47 -111z" />
<glyph unicode="&#xb1;" d="M68 104v240h888v-240h-888zM68 729v240h315v315h258v-315h315v-240h-315v-315h-258v315h-315z" />
<glyph unicode="&#xb4;" d="M319 1264l400 303l123 -187l-418 -268z" />
<glyph unicode="&#xb6;" horiz-adv-x="1355" d="M55 1004q0 362 471 362h680v-201h-149v-1353h-219v1353h-172v-1353h-222v845q-10 0 -13 -1t-9 -1q-81 0 -150 26q-67 25 -115 72t-75 109q-27 63 -27 142z" />
<glyph unicode="&#xb7;" horiz-adv-x="354" d="M0 520v352h354v-352h-354z" />
<glyph unicode="&#xb8;" d="M326 -279h123q11 -27 25 -39t38 -12q29 0 51 20q21 20 21 50q0 28 -18 46q-17 17 -46 17q-15 0 -27 -6t-28 -22l-90 65l76 160h124l-53 -106q27 6 41 6q61 0 104 -45q44 -46 44 -107q0 -80 -57 -132q-56 -52 -142 -52q-168 0 -186 157z" />
<glyph unicode="&#xba;" horiz-adv-x="751" d="M78 1090q0 64 22 117q22 54 63 93q43 41 94 61q54 21 118 21q63 0 119 -21q53 -20 94 -61q38 -38 61 -92t23 -116q0 -61 -23 -115t-61 -92q-40 -40 -93 -62t-118 -22q-66 0 -120 21q-51 20 -94 61q-40 39 -63 92q-22 51 -22 115zM92 608v68h567v-68h-567zM250 1094 q0 -58 36 -96q36 -37 91 -37q53 0 89 37q36 38 36 94t-37 94q-37 39 -90 39t-89 -38q-36 -37 -36 -93z" />
<glyph unicode="&#xbb;" horiz-adv-x="722" d="M82 176v273l94 83l-94 86v271l237 -242v-237zM416 176v273l96 83l-96 86v271l237 -242v-237z" />
<glyph unicode="&#xbf;" horiz-adv-x="1015" d="M61 23q0 99 54 190q8 14 24 38q12 18 30 36q4 4 11.5 12t15 15t14.5 14l60 57q26 25 66 65q27 27 42 51q15 23 22 44q8 21 12 45h317q0 -41 -8 -78q-7 -30 -30 -72q-20 -36 -57 -79q-33 -39 -93 -97q-75 -72 -98 -111q-27 -46 -27 -92q0 -114 106 -114q68 0 95 40 q28 41 32 138h338v-35q0 -100 -36 -184q-37 -86 -100 -146q-62 -59 -154 -95q-87 -34 -193 -34q-91 0 -175 31q-80 30 -141 83q-58 51 -93 124q-34 71 -34 154zM412 711v313h317v-313h-317z" />
<glyph unicode="&#xc0;" horiz-adv-x="1351" d="M-6 0l547 1366h276l543 -1366h-379l-66 199h-475l-71 -199h-375zM379 1675l102 234l494 -267l-92 -188zM537 475h284l-141 467z" />
<glyph unicode="&#xc1;" horiz-adv-x="1351" d="M-6 0l547 1366h276l543 -1366h-379l-66 199h-475l-71 -199h-375zM379 1642l491 267l105 -234l-506 -221zM537 475h284l-141 467z" />
<glyph unicode="&#xc2;" horiz-adv-x="1351" d="M-6 0l547 1366h276l543 -1366h-379l-66 199h-475l-71 -199h-375zM260 1501l268 307h303l263 -307h-324l-94 131l-90 -131h-326zM537 475h284l-141 467z" />
<glyph unicode="&#xc3;" horiz-adv-x="1351" d="M-6 0l547 1366h276l543 -1366h-379l-66 199h-475l-71 -199h-375zM254 1708q121 82 246 82q32 0 59 -4q21 -3 92 -17q45 -11 92 -18q27 -4 60 -4q43 0 78 9q31 8 86 34l131 -180q-57 -39 -124 -62q-65 -22 -126 -22q-44 0 -100 12l-66 14q-47 12 -76 16q-38 5 -57 5 q-36 0 -66 -9q-29 -9 -86 -38zM537 475h284l-141 467z" />
<glyph unicode="&#xc4;" horiz-adv-x="1351" d="M-6 0l547 1366h276l543 -1366h-379l-66 199h-475l-71 -199h-375zM293 1501v307h321v-307h-321zM537 475h284l-141 467zM737 1501v307h322v-307h-322z" />
<glyph unicode="&#xc5;" horiz-adv-x="1351" d="M-6 0l547 1366h276l543 -1366h-379l-66 199h-475l-71 -199h-375zM440 1696q0 47 19 91q18 42 50 74t75 50t92 18q48 0 92 -18q42 -17 76 -50q33 -31 51 -74q18 -42 18 -91q0 -50 -19 -91q-20 -42 -51 -75t-75 -51q-46 -19 -92 -19t-92 19q-44 18 -75 51q-32 34 -50 75 q-19 44 -19 91zM537 475h284l-141 467zM592 1696q0 -38 24 -63t60 -25q35 0 60 25q26 26 26 63q0 36 -26 62t-60 26q-35 0 -62 -27q-22 -22 -22 -55v-6z" />
<glyph unicode="&#xc6;" horiz-adv-x="1757" d="M-55 0l950 1366h778v-307h-426v-211h412v-307h-412v-234h426v-307h-760v227h-397l-147 -227h-424zM657 498h256v372z" />
<glyph unicode="&#xc7;" horiz-adv-x="1507" d="M59 686q0 147 56 277q56 131 151 224q96 94 227 150q132 56 281 56q194 0 349 -85q156 -86 257 -245q11 -17 37 -61q16 -26 24 -49q9 -25 15 -49q6 -27 12 -58h-364q-40 109 -130 175q-88 64 -202 64q-78 0 -144 -30q-64 -29 -116 -84q-49 -52 -77 -126q-27 -72 -27 -159 q0 -88 28 -160q28 -74 78 -129q50 -56 116 -86t144 -30q219 0 330 229h364q-29 -116 -88 -212q-62 -100 -143 -170q-88 -75 -188 -114q-106 -41 -222 -41h-6l-37 -69q13 4 22 4h17q70 0 115 -45t45 -115q0 -94 -63 -156q-62 -61 -162 -61q-92 0 -145 48q-51 47 -62 138h143 q15 -29 29 -40t45 -11q28 0 48 20t20 48t-21 48q-20 19 -49 19q-19 0 -31 -6t-28 -22l-105 63l74 144h-6q-135 19 -243 80q-113 64 -194 157t-128 215q-46 120 -46 254z" />
<glyph unicode="&#xc8;" horiz-adv-x="960" d="M117 0v1366h757v-307h-423v-211h411v-307h-411v-234h423v-307h-757zM199 1675l102 234l492 -267l-91 -188z" />
<glyph unicode="&#xc9;" horiz-adv-x="960" d="M117 0v1366h757v-307h-423v-211h411v-307h-411v-234h423v-307h-757zM199 1642l491 267l103 -234l-504 -221z" />
<glyph unicode="&#xca;" horiz-adv-x="960" d="M117 0v1366h757v-307h-423v-211h411v-307h-411v-234h423v-307h-757zM121 1501l272 307h213l264 -307h-288l-86 119l-84 -119h-291z" />
<glyph unicode="&#xcb;" horiz-adv-x="960" d="M113 1501v307h321v-307h-321zM117 0v1366h757v-307h-423v-211h411v-307h-411v-234h423v-307h-757zM557 1501v307h322v-307h-322z" />
<glyph unicode="&#xcc;" horiz-adv-x="579" d="M-8 1675l104 234l492 -267l-90 -188zM117 0v1366h348v-1366h-348z" />
<glyph unicode="&#xcd;" horiz-adv-x="579" d="M-8 1642l491 267l105 -234l-504 -221zM117 0v1366h348v-1366h-348z" />
<glyph unicode="&#xce;" horiz-adv-x="579" d="M-14 1501l196 307h221l191 -307h-221l-82 158l-80 -158h-225zM117 0v1366h348v-1366h-348z" />
<glyph unicode="&#xcf;" horiz-adv-x="579" d="M10 1501v307h228v-307h-228zM117 0v1366h348v-1366h-348zM342 1501v307h227v-307h-227z" />
<glyph unicode="&#xd1;" horiz-adv-x="1384" d="M117 0v1366h299l532 -860l-14 860h334v-1366h-303l-529 829l15 -829h-334zM270 1708q121 82 244 82q34 0 61 -4q25 -4 93 -17q45 -11 92 -18q27 -4 59 -4q43 0 78 9q31 8 86 34l131 -180q-63 -41 -125 -62q-65 -22 -125 -22q-44 0 -100 12l-66 14q-48 13 -75 16 q-38 5 -58 5q-35 0 -65 -9q-29 -9 -86 -38z" />
<glyph unicode="&#xd2;" horiz-adv-x="1558" d="M59 680q0 150 56 282q55 130 151 226q95 95 228 150t282 55q153 0 286 -56q131 -55 229 -150q97 -94 154 -225q56 -128 56 -280t-56 -279q-58 -131 -154 -224q-98 -95 -229 -150q-133 -56 -286 -56q-149 0 -282 55q-132 55 -228 149q-95 93 -151 224q-56 130 -56 279z M408 686q0 -87 28 -161q28 -73 79 -129q50 -55 120 -85q69 -30 149 -30q78 0 146 30q65 29 117 84q47 50 77 127q29 75 29 158q0 85 -29 160q-28 74 -78 129q-50 56 -118 86t-148 30q-79 0 -148 -30q-66 -29 -118 -84q-48 -51 -78 -126q-28 -71 -28 -159zM481 1675l105 234 l491 -267l-90 -188z" />
<glyph unicode="&#xd3;" horiz-adv-x="1558" d="M59 680q0 150 56 282q55 130 151 226q95 95 228 150t282 55q153 0 286 -56q131 -55 229 -150q97 -94 154 -225q56 -128 56 -280t-56 -279q-58 -131 -154 -224q-98 -95 -229 -150q-133 -56 -286 -56q-149 0 -282 55q-132 55 -228 149q-95 93 -151 224q-56 130 -56 279z M408 686q0 -87 28 -161q28 -73 79 -129q50 -55 120 -85q69 -30 149 -30q78 0 146 30q65 29 117 84q47 50 77 127q29 75 29 158q0 85 -29 160q-28 74 -78 129q-50 56 -118 86t-148 30q-79 0 -148 -30q-66 -29 -118 -84q-48 -51 -78 -126q-28 -71 -28 -159zM481 1642l492 267 l104 -234l-504 -221z" />
<glyph unicode="&#xd4;" horiz-adv-x="1558" d="M59 680q0 150 56 282q55 130 151 226q95 95 228 150t282 55q153 0 286 -56q131 -55 229 -150q97 -94 154 -225q56 -128 56 -280t-56 -279q-58 -131 -154 -224q-98 -95 -229 -150q-133 -56 -286 -56q-149 0 -282 55q-132 55 -228 149q-95 93 -151 224q-56 130 -56 279z M362 1501l271 307h303l260 -307h-324l-92 131l-92 -131h-326zM408 686q0 -87 28 -161q28 -73 79 -129q50 -55 120 -85q69 -30 149 -30q78 0 146 30q65 29 117 84q47 50 77 127q29 75 29 158q0 85 -29 160q-28 74 -78 129q-50 56 -118 86t-148 30q-79 0 -148 -30 q-66 -29 -118 -84q-48 -51 -78 -126q-28 -71 -28 -159z" />
<glyph unicode="&#xd5;" horiz-adv-x="1558" d="M59 680q0 150 56 282q55 130 151 226q95 95 228 150t282 55q153 0 286 -56q131 -55 229 -150q97 -94 154 -225q56 -128 56 -280t-56 -279q-58 -131 -154 -224q-98 -95 -229 -150q-133 -56 -286 -56q-149 0 -282 55q-132 55 -228 149q-95 93 -151 224q-56 130 -56 279z M358 1708q121 82 244 82q33 0 61 -4q21 -3 91 -17q45 -11 92 -18q27 -4 59 -4q45 0 79 9q29 7 85 34l131 -180q-57 -39 -124 -62q-65 -22 -126 -22q-42 0 -98 12l-66 14q-48 13 -76 16q-40 5 -59 5q-34 0 -64 -9q-27 -8 -87 -38zM408 686q0 -87 28 -161q28 -73 79 -129 q50 -55 120 -85q69 -30 149 -30q78 0 146 30q65 29 117 84q47 50 77 127q29 75 29 158q0 85 -29 160q-28 74 -78 129q-50 56 -118 86t-148 30q-79 0 -148 -30q-66 -29 -118 -84q-48 -51 -78 -126q-28 -71 -28 -159z" />
<glyph unicode="&#xd6;" horiz-adv-x="1558" d="M59 680q0 150 56 282q55 130 151 226q95 95 228 150t282 55q153 0 286 -56q131 -55 229 -150q97 -94 154 -225q56 -128 56 -280t-56 -279q-58 -131 -154 -224q-98 -95 -229 -150q-133 -56 -286 -56q-149 0 -282 55q-132 55 -228 149q-95 93 -151 224q-56 130 -56 279z M397 1501v307h322v-307h-322zM408 686q0 -87 28 -161q28 -73 79 -129q50 -55 120 -85q69 -30 149 -30q78 0 146 30q65 29 117 84q47 50 77 127q29 75 29 158q0 85 -29 160q-28 74 -78 129q-50 56 -118 86t-148 30q-79 0 -148 -30q-66 -29 -118 -84q-48 -51 -78 -126 q-28 -71 -28 -159zM842 1501v307h319v-307h-319z" />
<glyph unicode="&#xd7;" horiz-adv-x="1124" d="M117 129l356 354l-356 355l90 90l356 -355l355 353l90 -88l-357 -355l357 -354l-90 -90l-355 356l-356 -356z" />
<glyph unicode="&#xd8;" horiz-adv-x="1558" d="M59 682q0 150 56 282q56 131 151 225q96 95 229 149q134 55 285 55q38 0 90 -2q33 -1 73 -10q38 -8 68 -20q29 -12 76 -34l121 160l217 -156l-118 -160l4 -6q190 -206 190 -483q0 -152 -56 -280q-57 -131 -154 -225q-99 -96 -229 -149q-134 -55 -286 -55q-48 0 -86 3 q-23 2 -70 10q-34 6 -69 18q-19 7 -78 31l-6 4l-115 -156l-217 160l113 154l-4 6q-185 199 -185 479zM408 688q0 -54 13 -109q13 -57 36 -102l438 590q-34 12 -56 15q-21 3 -59 3q-80 0 -147 -30t-118 -84q-50 -53 -79 -126q-28 -71 -28 -157zM662 299q34 -12 57 -15t63 -3 q78 0 146 30q67 30 118 84q49 52 78 127t29 158q0 108 -53 211z" />
<glyph unicode="&#xd9;" horiz-adv-x="1253" d="M102 539v827h349v-827q0 -135 42 -197q42 -61 136 -61q96 0 135 57t39 201v827h348v-827q0 -149 -31 -247q-30 -94 -104 -171q-146 -148 -387 -148q-121 0 -219 37t-170 109q-40 40 -66 79q-28 41 -42 89q-14 47 -22 109q-8 64 -8 143zM330 1675l102 234l492 -267 l-90 -188z" />
<glyph unicode="&#xda;" horiz-adv-x="1253" d="M102 539v827h349v-827q0 -135 42 -197q42 -61 136 -61q96 0 135 57t39 201v827h348v-827q0 -149 -31 -247q-30 -94 -104 -171q-146 -148 -387 -148q-121 0 -219 37t-170 109q-40 40 -66 79q-28 41 -42 89q-14 47 -22 109q-8 64 -8 143zM330 1642l491 267l103 -234 l-504 -221z" />
<glyph unicode="&#xdb;" horiz-adv-x="1253" d="M102 539v827h349v-827q0 -135 42 -197q42 -61 136 -61q96 0 135 57t39 201v827h348v-827q0 -149 -31 -247q-30 -94 -104 -171q-146 -148 -387 -148q-121 0 -219 37t-170 109q-40 40 -66 79q-28 41 -42 89q-14 47 -22 109q-8 64 -8 143zM209 1501l270 307h303l262 -307 h-323l-94 131l-90 -131h-328z" />
<glyph unicode="&#xdc;" horiz-adv-x="1253" d="M102 539v827h349v-827q0 -135 42 -197q42 -61 136 -61q96 0 135 57t39 201v827h348v-827q0 -149 -31 -247q-30 -94 -104 -171q-146 -148 -387 -148q-121 0 -219 37t-170 109q-40 40 -66 79q-28 41 -42 89q-14 47 -22 109q-8 64 -8 143zM244 1501v307h321v-307h-321z M688 1501v307h322v-307h-322z" />
<glyph unicode="&#xdf;" horiz-adv-x="1263" d="M96 0v788q0 82 5 152q4 59 19 113q13 48 36 89q22 39 57 79q79 88 183 133q109 47 222 47q87 0 169 -31q78 -29 139 -83q57 -50 93 -122q34 -68 34 -149q0 -77 -31 -136q-30 -57 -100 -104q66 -16 115 -48q53 -34 90 -81q40 -50 60 -105q21 -59 21 -122q0 -93 -38 -177 t-102 -145q-63 -60 -152 -97q-87 -36 -185 -36q-48 0 -94 8q-42 7 -81 26q-41 19 -75 47q-39 31 -78 73v-119h-307zM403 385h170q39 -133 160 -133q72 0 120 48t48 120q0 79 -55 125q-56 47 -152 47h-166v229h62q71 0 113 39t42 105q0 65 -45 107t-114 42q-90 0 -136 -61 q-47 -62 -47 -179v-489z" />
<glyph unicode="&#xe0;" horiz-adv-x="1284" d="M55 512q0 120 39 222q38 100 109 174q69 72 166 113q95 40 213 40q114 0 192 -35q75 -34 119 -111v109h289v-1024h-289v111q-74 -146 -318 -146q-118 0 -211 40q-96 41 -164 112q-70 73 -107 172q-38 102 -38 223zM362 512q0 -54 20 -102q20 -47 54 -83q35 -36 82 -56 q45 -19 100 -19q58 0 103 19t81 55q32 32 53 83q19 47 19 105q0 57 -19 102q-21 50 -53 82q-37 37 -82 55q-47 19 -104 19q-55 0 -100 -19q-46 -19 -81 -56q-32 -34 -53 -83q-20 -48 -20 -102zM379 1380l121 187l401 -303l-104 -152z" />
<glyph unicode="&#xe1;" horiz-adv-x="1284" d="M55 512q0 120 39 222q38 100 109 174q69 72 166 113q95 40 213 40q114 0 192 -35q75 -34 119 -111v109h289v-1024h-289v111q-74 -146 -318 -146q-118 0 -211 40q-96 41 -164 112q-70 73 -107 172q-38 102 -38 223zM362 512q0 -54 20 -102q20 -47 54 -83q35 -36 82 -56 q45 -19 100 -19q58 0 103 19t81 55q32 32 53 83q19 47 19 105q0 57 -19 102q-21 50 -53 82q-37 37 -82 55q-47 19 -104 19q-55 0 -100 -19q-46 -19 -81 -56q-32 -34 -53 -83q-20 -48 -20 -102zM385 1264l399 303l121 -187l-416 -268z" />
<glyph unicode="&#xe2;" horiz-adv-x="1284" d="M55 512q0 120 39 222q38 100 109 174q69 72 166 113q95 40 213 40q114 0 192 -35q75 -34 119 -111v109h289v-1024h-289v111q-74 -146 -318 -146q-118 0 -211 40q-96 41 -164 112q-70 73 -107 172q-38 102 -38 223zM248 1147l272 305h213l266 -305h-290l-84 119l-84 -119 h-293zM362 512q0 -54 20 -102q20 -47 54 -83q35 -36 82 -56q45 -19 100 -19q58 0 103 19t81 55q32 32 53 83q19 47 19 105q0 57 -19 102q-21 50 -53 82q-37 37 -82 55q-47 19 -104 19q-55 0 -100 -19q-46 -19 -81 -56q-32 -34 -53 -83q-20 -48 -20 -102z" />
<glyph unicode="&#xe3;" horiz-adv-x="1284" d="M55 512q0 120 39 222q38 100 109 174q69 72 166 113q95 40 213 40q114 0 192 -35q75 -34 119 -111v109h289v-1024h-289v111q-74 -146 -318 -146q-118 0 -211 40q-96 41 -164 112q-70 73 -107 172q-38 102 -38 223zM260 1343q64 36 117 55q48 17 98 17q33 0 60 -4 q48 -7 81 -14q23 -5 48 -9q4 -1 15.5 -3t17.5 -3q20 -2 29 -3t30 -1q44 0 71 7q30 8 80 30l117 -155q-112 -78 -227 -78q-23 0 -45 3q-33 4 -47 7l-60 12q-85 17 -121 17q-30 0 -63 -10q-37 -11 -82 -31zM362 512q0 -54 20 -102q20 -47 54 -83q35 -36 82 -56q45 -19 100 -19 q58 0 103 19t81 55q32 32 53 83q19 47 19 105q0 57 -19 102q-21 50 -53 82q-37 37 -82 55q-47 19 -104 19q-55 0 -100 -19q-46 -19 -81 -56q-32 -34 -53 -83q-20 -48 -20 -102z" />
<glyph unicode="&#xe4;" horiz-adv-x="1284" d="M55 512q0 120 39 222q38 100 109 174q69 72 166 113q95 40 213 40q114 0 192 -35q75 -34 119 -111v109h289v-1024h-289v111q-74 -146 -318 -146q-118 0 -211 40q-96 41 -164 112q-70 73 -107 172q-38 102 -38 223zM309 1161v279h293v-279h-293zM362 512q0 -54 20 -102 q20 -47 54 -83q35 -36 82 -56q45 -19 100 -19q58 0 103 19t81 55q32 32 53 83q19 47 19 105q0 57 -19 102q-21 50 -53 82q-37 37 -82 55q-47 19 -104 19q-55 0 -100 -19q-46 -19 -81 -56q-32 -34 -53 -83q-20 -48 -20 -102zM719 1161v279h293v-279h-293z" />
<glyph unicode="&#xe5;" horiz-adv-x="1284" d="M55 512q0 120 39 222q38 100 109 174q69 72 166 113q95 40 213 40q114 0 192 -35q75 -34 119 -111v109h289v-1024h-289v111q-74 -146 -318 -146q-118 0 -211 40q-96 41 -164 112q-70 73 -107 172q-38 102 -38 223zM362 512q0 -54 20 -102q20 -47 54 -83q35 -36 82 -56 q45 -19 100 -19q58 0 103 19t81 55q32 32 53 83q19 47 19 105q0 57 -19 102q-21 50 -53 82q-37 37 -82 55q-47 19 -104 19q-55 0 -100 -19q-46 -19 -81 -56q-32 -34 -53 -83q-20 -48 -20 -102zM410 1356q0 48 18 88q18 41 49 72t73 49t89 18q49 0 91 -18t73 -49t49 -72 q18 -40 18 -88q0 -47 -18 -89q-18 -43 -50 -73q-33 -31 -74 -49q-44 -19 -89 -19t-89 19q-42 18 -73 49t-49 73t-18 89zM551 1356q0 -39 27 -66q26 -26 61 -26q37 0 62 26q26 28 26 66q0 35 -26 63q-26 27 -62 27q-34 0 -61 -27t-27 -63z" />
<glyph unicode="&#xe6;" horiz-adv-x="2004" d="M55 512q0 120 39 221q39 100 109 173q69 72 166 113q95 40 213 40q113 0 180 -34q68 -35 112 -110v109h279v-109q47 74 114 109t163 35q108 0 204 -44q94 -43 165 -120t111 -179t40 -222q0 -33 -1 -42q-1 -10 -8 -36h-768q12 -88 76 -140q63 -51 158 -51q58 0 104 22 q44 21 95 77h309q-35 -85 -72 -137q-39 -55 -92 -99q-145 -123 -321 -123q-97 0 -164 35t-113 111v-111h-279v111q-62 -146 -301 -146q-119 0 -212 40q-95 41 -162 112q-69 74 -106 172q-38 102 -38 223zM362 512q0 -56 21 -102q22 -48 55 -83q35 -36 82 -56q45 -19 103 -19 q54 0 99 19q43 18 80 55q32 32 53 83q19 47 19 103q0 116 -72 188t-190 72q-55 0 -98 -20t-79 -56q-32 -32 -53 -82q-20 -48 -20 -102zM1180 621h467q-49 178 -230 178q-92 0 -157 -49t-80 -129z" />
<glyph unicode="&#xe7;" horiz-adv-x="1175" d="M55 514q0 115 42 214q42 98 115 173q73 74 171 116q99 42 213 42q97 0 190 -31q88 -29 162 -88q72 -57 121 -136t70 -175h-310q-29 68 -88 105q-61 38 -135 38q-54 0 -98 -19q-45 -20 -77 -56q-32 -37 -50 -84q-19 -51 -19 -105q0 -112 69 -184t175 -72q72 0 125 33 q55 35 100 104h310q-21 -89 -68 -165q-46 -75 -112 -130q-65 -55 -147 -88q-81 -33 -171 -39l-37 -73q27 6 41 6q61 0 104 -45q44 -46 44 -107q0 -80 -57 -132q-56 -52 -142 -52q-164 0 -186 157h125q10 -28 23 -39q14 -12 38 -12q32 0 52 20t20 50q0 28 -18 46 q-17 17 -46 17q-15 0 -27 -6t-28 -22l-90 65l63 131q-101 15 -187 63q-83 46 -148 121q-62 71 -97 164t-35 195z" />
<glyph unicode="&#xe8;" horiz-adv-x="1183" d="M55 510q0 114 42 215t114 174q72 74 169 117q96 43 208 43q116 0 214 -43q102 -45 172 -118q73 -76 113 -177q41 -103 41 -221q0 -22 -2 -42q-2 -15 -6 -42h-768q10 -86 72 -138q62 -53 154 -53q56 0 98 17q40 16 90 63q1 4 6 7q3 2 8 7h312q-71 -165 -203 -260 q-130 -94 -295 -94q-112 0 -211 42q-98 42 -171 116q-73 75 -115 173q-42 99 -42 214zM344 1380l123 187l399 -303l-104 -152zM360 621h461q-17 80 -79 129t-152 49q-92 0 -151 -46q-61 -47 -79 -132z" />
<glyph unicode="&#xe9;" horiz-adv-x="1183" d="M55 510q0 114 42 215t114 174q72 74 169 117q96 43 208 43q116 0 214 -43q102 -45 172 -118q73 -76 113 -177q41 -103 41 -221q0 -22 -2 -42q-2 -15 -6 -42h-768q10 -86 72 -138q62 -53 154 -53q56 0 98 17q40 16 90 63q1 4 6 7q3 2 8 7h312q-71 -165 -203 -260 q-130 -94 -295 -94q-112 0 -211 42q-98 42 -171 116q-73 75 -115 173q-42 99 -42 214zM317 1264l400 303l123 -187l-418 -268zM360 621h461q-17 80 -79 129t-152 49q-92 0 -151 -46q-61 -47 -79 -132z" />
<glyph unicode="&#xea;" horiz-adv-x="1183" d="M55 510q0 114 42 215t114 174q72 74 169 117q96 43 208 43q116 0 214 -43q102 -45 172 -118q73 -76 113 -177q41 -103 41 -221q0 -22 -2 -42q-2 -15 -6 -42h-768q10 -86 72 -138q62 -53 154 -53q56 0 98 17q40 16 90 63q1 4 6 7q3 2 8 7h312q-71 -165 -203 -260 q-130 -94 -295 -94q-112 0 -211 42q-98 42 -171 116q-73 75 -115 173q-42 99 -42 214zM217 1147l272 305h213l265 -305h-289l-86 119l-84 -119h-291zM360 621h461q-17 80 -79 129t-152 49q-92 0 -151 -46q-61 -47 -79 -132z" />
<glyph unicode="&#xeb;" horiz-adv-x="1183" d="M55 510q0 114 42 215t114 174q72 74 169 117q96 43 208 43q116 0 214 -43q102 -45 172 -118q73 -76 113 -177q41 -103 41 -221q0 -22 -2 -42q-2 -15 -6 -42h-768q10 -86 72 -138q62 -53 154 -53q56 0 98 17q40 16 90 63q1 4 6 7q3 2 8 7h312q-71 -165 -203 -260 q-130 -94 -295 -94q-112 0 -211 42q-98 42 -171 116q-73 75 -115 173q-42 99 -42 214zM248 1161v279h295v-279h-295zM360 621h461q-17 80 -79 129t-152 49q-92 0 -151 -46q-61 -47 -79 -132zM657 1161v279h295v-279h-295z" />
<glyph unicode="&#xec;" horiz-adv-x="512" d="M-4 1380l121 187l399 -303l-104 -152zM102 0v1024h308v-1024h-308z" />
<glyph unicode="&#xed;" horiz-adv-x="512" d="M-4 1264l399 303l121 -187l-416 -268zM102 0v1024h308v-1024h-308z" />
<glyph unicode="&#xee;" horiz-adv-x="512" d="M-4 1147l188 305h148l184 -305h-186l-74 145l-72 -145h-188zM102 0v1024h308v-1024h-308z" />
<glyph unicode="&#xef;" horiz-adv-x="512" d="M2 1174v251h205v-251h-205zM102 0v1024h308v-1024h-308zM305 1174v251h205v-251h-205z" />
<glyph unicode="&#xf1;" horiz-adv-x="1146" d="M102 0v1024h291v-109q51 74 118 110q64 34 163 34q78 0 153 -28q70 -26 121 -77q32 -31 50 -58q18 -28 31 -66q13 -39 17 -81q5 -52 5 -108v-641h-308v559q0 112 -37 162q-38 51 -122 51q-174 0 -174 -201v-571h-308zM190 1343q64 36 117 55q48 17 101 17q30 0 57 -4 q52 -8 82 -14l48 -11q12 -3 34 -5l27 -2q9 -1 30 -1q47 0 74 7q28 7 78 30l118 -155q-112 -78 -229 -78q-13 0 -43 2q-19 1 -49 8l-57 12q-43 11 -71 14q-30 3 -50 3q-33 0 -66 -10q-37 -11 -82 -31z" />
<glyph unicode="&#xf2;" horiz-adv-x="1218" d="M55 506q0 117 41 220q40 100 115 175t175 116q102 42 222 42q117 0 220 -41q101 -40 176 -115q73 -73 115 -174q42 -100 42 -217q0 -116 -42 -217t-115 -174q-74 -75 -175 -115q-102 -41 -219 -41q-119 0 -222 41q-100 40 -175 113q-74 73 -116 171q-42 99 -42 216z M362 514q0 -52 19 -103q18 -49 52 -84q36 -37 79 -56q44 -19 98 -19q53 0 97 19q43 18 77 56t52 83q18 46 18 102q0 57 -19 102q-20 47 -53 82q-34 36 -76 56q-41 20 -96 20t-98 -20q-44 -21 -78 -56q-31 -33 -52 -82q-20 -48 -20 -100zM362 1380l121 187l400 -303 l-105 -152z" />
<glyph unicode="&#xf3;" horiz-adv-x="1218" d="M55 506q0 117 41 220q40 100 115 175t175 116q102 42 222 42q117 0 220 -41q101 -40 176 -115q73 -73 115 -174q42 -100 42 -217q0 -116 -42 -217t-115 -174q-74 -75 -175 -115q-102 -41 -219 -41q-119 0 -222 41q-100 40 -175 113q-74 73 -116 171q-42 99 -42 216z M334 1264l401 303l121 -187l-418 -268zM362 514q0 -52 19 -103q18 -49 52 -84q36 -37 79 -56q44 -19 98 -19q53 0 97 19q43 18 77 56t52 83q18 46 18 102q0 57 -19 102q-20 47 -53 82q-34 36 -76 56q-41 20 -96 20t-98 -20q-44 -21 -78 -56q-31 -33 -52 -82 q-20 -48 -20 -100z" />
<glyph unicode="&#xf4;" horiz-adv-x="1218" d="M55 506q0 117 41 220q40 100 115 175t175 116q102 42 222 42q117 0 220 -41q101 -40 176 -115q73 -73 115 -174q42 -100 42 -217q0 -116 -42 -217t-115 -174q-74 -75 -175 -115q-102 -41 -219 -41q-119 0 -222 41q-100 40 -175 113q-74 73 -116 171q-42 99 -42 216z M233 1147l273 305h213l266 -305h-291l-84 119l-84 -119h-293zM362 514q0 -52 19 -103q18 -49 52 -84q36 -37 79 -56q44 -19 98 -19q53 0 97 19q43 18 77 56t52 83q18 46 18 102q0 57 -19 102q-20 47 -53 82q-34 36 -76 56q-41 20 -96 20t-98 -20q-44 -21 -78 -56 q-31 -33 -52 -82q-20 -48 -20 -100z" />
<glyph unicode="&#xf5;" horiz-adv-x="1218" d="M55 506q0 117 41 220q40 100 115 175t175 116q102 42 222 42q117 0 220 -41q101 -40 176 -115q73 -73 115 -174q42 -100 42 -217q0 -116 -42 -217t-115 -174q-74 -75 -175 -115q-102 -41 -219 -41q-119 0 -222 41q-100 40 -175 113q-74 73 -116 171q-42 99 -42 216z M227 1343q63 36 116 55q47 17 99 17q31 0 59 -4q49 -7 83 -14q27 -6 47 -9q3 -1 15.5 -3t18.5 -3q10 -1 28 -3q9 -1 30 -1q45 0 72 7q26 7 77 30l119 -155q-113 -78 -227 -78q-22 0 -45 3q-33 4 -47 7l-60 12q-10 2 -24.5 5t-25.5 5t-20 3q-27 4 -50 4q-33 0 -66 -10 q-35 -10 -80 -31zM362 514q0 -52 19 -103q18 -49 52 -84q36 -37 79 -56q44 -19 98 -19q53 0 97 19q43 18 77 56t52 83q18 46 18 102q0 57 -19 102q-20 47 -53 82q-34 36 -76 56q-41 20 -96 20t-98 -20q-44 -21 -78 -56q-31 -33 -52 -82q-20 -48 -20 -100z" />
<glyph unicode="&#xf6;" horiz-adv-x="1218" d="M55 506q0 117 41 220q40 100 115 175t175 116q102 42 222 42q117 0 220 -41q101 -40 176 -115q73 -73 115 -174q42 -100 42 -217q0 -116 -42 -217t-115 -174q-74 -75 -175 -115q-102 -41 -219 -41q-119 0 -222 41q-100 40 -175 113q-74 73 -116 171q-42 99 -42 216z M258 1161v279h293v-279h-293zM362 514q0 -52 19 -103q18 -49 52 -84q36 -37 79 -56q44 -19 98 -19q53 0 97 19q43 18 77 56t52 83q18 46 18 102q0 57 -19 102q-20 47 -53 82q-34 36 -76 56q-41 20 -96 20t-98 -20q-44 -21 -78 -56q-31 -33 -52 -82q-20 -48 -20 -100z M668 1161v279h293v-279h-293z" />
<glyph unicode="&#xf7;" d="M68 575v240h888v-240h-888zM362 344q0 63 44 107q43 43 106 43q62 0 105 -43q45 -45 45 -107q0 -58 -45 -103q-44 -44 -105 -44t-105 44q-45 45 -45 103zM362 1044q0 62 44 106t106 44q61 0 105 -44q45 -45 45 -106q0 -60 -45 -105q-44 -44 -105 -44t-105 44 q-45 45 -45 105z" />
<glyph unicode="&#xf8;" horiz-adv-x="1218" d="M55 510q0 118 42 219q42 100 116 174q75 75 176 115q103 41 223 41q26 0 62 -2q27 -1 51 -6q22 -4 50 -14l61 -21l112 151l197 -141l-115 -154q68 -83 99 -170q32 -90 32 -192q0 -117 -42 -216q-43 -101 -115 -173q-74 -75 -175 -115q-102 -41 -219 -41q-25 0 -61 2 q-27 1 -51 6t-51 14l-60 21l-119 -162l-194 148l112 151q-64 71 -98 167q-33 93 -33 198zM362 512q0 -31 5 -54q6 -26 20 -59l275 367q-9 2 -27 5q-7 1 -25 1q-55 0 -98 -20q-44 -21 -78 -56q-31 -33 -52 -82q-20 -48 -20 -102zM563 258l10 -2t9.5 -2t5.5 -1q5 -1 20 -1 q55 0 99 19q43 18 77 56q35 38 52 84q18 48 18 103q0 32 -4 51q-6 26 -16 56z" />
<glyph unicode="&#xf9;" horiz-adv-x="1150" d="M96 412v612h307v-571q0 -108 39 -154q39 -47 125 -47q84 0 129 52t45 149v571h308v-1024h-291v109q-72 -144 -271 -144q-187 0 -299 129q-20 23 -44 62q-14 23 -28 67q-11 35 -16 82q-4 40 -4 107zM328 1380l123 187l399 -303l-105 -152z" />
<glyph unicode="&#xfa;" horiz-adv-x="1150" d="M96 412v612h307v-571q0 -108 39 -154q39 -47 125 -47q84 0 129 52t45 149v571h308v-1024h-291v109q-72 -144 -271 -144q-187 0 -299 129q-20 23 -44 62q-14 23 -28 67q-11 35 -16 82q-4 40 -4 107zM301 1264l399 303l123 -187l-417 -268z" />
<glyph unicode="&#xfb;" horiz-adv-x="1150" d="M96 412v612h307v-571q0 -108 39 -154q39 -47 125 -47q84 0 129 52t45 149v571h308v-1024h-291v109q-72 -144 -271 -144q-187 0 -299 129q-20 23 -44 62q-14 23 -28 67q-11 35 -16 82q-4 40 -4 107zM201 1147l272 305h213l264 -305h-288l-87 119l-83 -119h-291z" />
<glyph unicode="&#xfc;" horiz-adv-x="1150" d="M96 412v612h307v-571q0 -108 39 -154q39 -47 125 -47q84 0 129 52t45 149v571h308v-1024h-291v109q-72 -144 -271 -144q-187 0 -299 129q-20 23 -44 62q-14 23 -28 67q-11 35 -16 82q-4 40 -4 107zM221 1161v279h293v-279h-293zM631 1161v279h293v-279h-293z" />
<glyph unicode="&#xff;" horiz-adv-x="1015" d="M-20 1024h325l207 -594l199 594h325l-514 -1366h-323l161 393zM156 1161v279h295v-279h-295zM565 1161v279h295v-279h-295z" />
<glyph unicode="&#x152;" horiz-adv-x="1988" d="M59 680q0 149 55 282q54 130 150 226q95 95 228 150t282 55q50 0 106 -7q53 -7 92 -20q45 -16 86 -36q42 -21 87 -54v90h760v-307h-424v-211h409v-307h-409v-234h424v-307h-760v88q-85 -59 -175 -87q-92 -28 -202 -28q-146 0 -278 56q-130 55 -225 150q-94 94 -150 224 t-56 277zM408 680q0 -84 27 -158t77 -127q52 -55 116 -84q66 -30 144 -30q80 0 149 30q65 28 117 85q50 55 77 129q28 78 28 163q0 84 -28 160q-26 72 -76 126q-48 52 -115 82q-65 29 -148 29q-80 0 -147 -30q-65 -29 -117 -84q-50 -53 -77 -128t-27 -163z" />
<glyph unicode="&#x153;" horiz-adv-x="1978" d="M55 510q0 119 41 221q40 99 114 173t174 114q103 41 222 41q262 0 391 -176q26 38 70 71q45 34 93 56t108 36q55 13 114 13q113 0 211 -43q100 -44 172 -119q75 -79 116 -177q42 -102 42 -218q0 -19 -2 -41q-1 -12 -8 -45h-768q11 -86 72 -138q62 -53 159 -53 q62 0 106 21t93 73h311q-32 -81 -85 -147q-52 -66 -118 -112q-65 -46 -142 -70q-80 -25 -159 -25q-130 0 -220 43q-92 44 -165 142q-33 -43 -48 -58q-23 -23 -44 -37q-57 -41 -139 -66q-80 -24 -166 -24q-118 0 -218 41q-98 40 -172 114t-114 172q-41 100 -41 218zM362 514 q0 -54 20 -102q21 -49 53 -83q35 -37 80 -57q44 -20 97 -20q55 0 96 20t77 56q34 34 54 83q19 47 19 101q0 55 -19 100q-20 47 -54 83q-36 37 -78 57q-43 20 -97 20q-53 0 -96 -20t-79 -56q-32 -32 -53 -82q-20 -48 -20 -100zM1153 621h463q-18 82 -81 130t-151 48 q-89 0 -151 -49q-64 -50 -80 -129z" />
<glyph unicode="&#x178;" horiz-adv-x="1120" d="M-20 1366h378l203 -549l205 549h375l-406 -868v-498h-348v498zM178 1501v307h322v-307h-322zM623 1501v307h319v-307h-319z" />
<glyph unicode="&#x2c6;" d="M137 1147l273 305h213l264 -305h-289l-86 119l-84 -119h-291z" />
<glyph unicode="&#x2dc;" d="M131 1356q121 65 207 65q24 0 61 -5t90 -19q54 -13 89 -19q25 -4 65 -4q37 0 64 6q26 6 73 27l113 -160q-107 -69 -219 -69q-47 0 -103 12l-59 14q-82 21 -129 21q-32 0 -60 -7q-32 -8 -79 -28z" />
<glyph unicode="&#x2000;" horiz-adv-x="964" />
<glyph unicode="&#x2001;" horiz-adv-x="1929" />
<glyph unicode="&#x2002;" horiz-adv-x="964" />
<glyph unicode="&#x2003;" horiz-adv-x="1929" />
<glyph unicode="&#x2004;" horiz-adv-x="643" />
<glyph unicode="&#x2005;" horiz-adv-x="482" />
<glyph unicode="&#x2006;" horiz-adv-x="321" />
<glyph unicode="&#x2007;" horiz-adv-x="321" />
<glyph unicode="&#x2008;" horiz-adv-x="241" />
<glyph unicode="&#x2009;" horiz-adv-x="385" />
<glyph unicode="&#x200a;" horiz-adv-x="107" />
<glyph unicode="&#x2010;" horiz-adv-x="518" d="M0 395v260h518v-260h-518z" />
<glyph unicode="&#x2011;" horiz-adv-x="518" d="M0 395v260h518v-260h-518z" />
<glyph unicode="&#x2012;" horiz-adv-x="518" d="M0 395v260h518v-260h-518z" />
<glyph unicode="&#x2013;" d="M68 575v240h888v-240h-888z" />
<glyph unicode="&#x2014;" horiz-adv-x="1570" d="M0 395v260h1571v-260h-1571z" />
<glyph unicode="&#x2018;" horiz-adv-x="536" d="M109 754v389q0 101 51 162t137 61h131v-166h-63q-35 0 -58 -18q-22 -18 -22 -52v-61h143v-315h-319z" />
<glyph unicode="&#x2019;" horiz-adv-x="536" d="M109 754v166h63q34 0 57 18t23 51v62h-143v315h319v-389q0 -101 -51 -162t-137 -61h-131z" />
<glyph unicode="&#x201a;" horiz-adv-x="536" d="M109 0v313h319v-387q0 -100 -51 -162q-51 -61 -137 -61h-131v164h63q35 0 57 19q23 20 23 51v63h-143z" />
<glyph unicode="&#x201c;" horiz-adv-x="993" d="M109 754v389q0 101 51 162t137 61h131v-166h-63q-35 0 -58 -18q-22 -18 -22 -52v-61h143v-315h-319zM565 754v389q0 101 51 162t138 61h129v-166h-64q-35 0 -56 -18q-22 -19 -22 -52v-61h142v-315h-318z" />
<glyph unicode="&#x201d;" horiz-adv-x="993" d="M109 754v166h63q34 0 57 18t23 51v62h-143v315h319v-389q0 -101 -51 -162t-137 -61h-131zM565 754v166h64q35 0 57 18q23 18 23 51v62h-144v315h318v-389q0 -100 -50 -162q-49 -61 -137 -61h-131z" />
<glyph unicode="&#x201e;" horiz-adv-x="993" d="M109 0v313h319v-387q0 -100 -51 -162q-51 -61 -137 -61h-131v164h63q35 0 57 19q23 20 23 51v63h-143zM565 0v313h318v-387q0 -100 -50 -162q-49 -61 -137 -61h-131v164h64q35 0 57 19q23 20 23 51v63h-144z" />
<glyph unicode="&#x2022;" horiz-adv-x="1366" d="M401 696q0 58 23 112q22 52 60 91t89 62q50 22 111 22q59 0 109 -22q51 -23 89 -62t60 -91q23 -54 23 -112q0 -57 -23 -111q-22 -52 -60 -91t-89 -62q-50 -22 -109 -22q-61 0 -111 22q-51 23 -89 62t-60 91q-23 54 -23 111z" />
<glyph unicode="&#x2026;" horiz-adv-x="1609" d="M109 0v313h319v-313h-319zM645 0v313h320v-313h-320zM1182 0v313h319v-313h-319z" />
<glyph unicode="&#x202f;" horiz-adv-x="385" />
<glyph unicode="&#x2039;" horiz-adv-x="387" d="M68 412v235l237 256v-287l-94 -84l94 -86v-270z" />
<glyph unicode="&#x203a;" horiz-adv-x="387" d="M82 176v273l94 83l-94 86v271l237 -242v-237z" />
<glyph unicode="&#x205f;" horiz-adv-x="482" />
<glyph unicode="&#x2122;" horiz-adv-x="1673" d="M20 1180v186h574v-186h-170v-592h-234v592h-170zM643 588v778h293l168 -489l164 489h297v-778h-217l8 536l-176 -536h-154l-174 536l6 -536h-215z" />
<glyph unicode="&#xfb01;" horiz-adv-x="1114" d="M16 793v231h113v53q0 76 25 140q23 59 71 98q53 41 121 60q66 18 174 18h47v-232h-37q-94 0 -94 -96v-41h131v-231h-131v-793h-307v793h-113zM705 0v1024h307v-1024h-307zM705 1133v233h307v-233h-307z" />
<glyph unicode="&#xfb02;" horiz-adv-x="1114" d="M16 793v231h113v53q0 76 25 140q23 59 71 98q53 41 121 60q66 18 174 18h47v-232h-37q-94 0 -94 -96v-41h131v-231h-131v-793h-307v793h-113zM705 0v1366h307v-1366h-307z" />
</font>
</defs>
</svg>
